<svg width="342" height="130" xmlns="http://www.w3.org/2000/svg" xmlns:xlink="http://www.w3.org/1999/xlink"><defs><path d="M5.42 149.931a2.48 2.48 0 0 1-3.477-.644 2.552 2.552 0 0 1 .636-3.522l64.127-44.841a18.309 18.309 0 0 1 20.717-.21l29.666 19.866a13.37 13.37 0 0 0 16.495-1.258l38.434-35.155c4.75-4.346 11.384-5.896 17.535-4.096l27.038 7.91c13.072 3.824 27.149 1.523 38.37-6.273l85.625-59.492a2.48 2.48 0 0 1 3.475.656 2.552 2.552 0 0 1-.647 3.52L257.79 85.882c-12.453 8.652-28.077 11.206-42.586 6.962l-27.038-7.91a13.376 13.376 0 0 0-12.796 2.99l-38.433 35.154a18.32 18.32 0 0 1-22.605 1.724l-29.666-19.866a13.36 13.36 0 0 0-15.118.153L5.421 149.931z" id="a"/></defs><g transform="translate(-3 -21)" fill="none" fill-rule="evenodd"><mask id="b" fill="#fff"><use xlink:href="#a"/></mask><use fill="#979797" fill-rule="nonzero" xlink:href="#a"/><g mask="url(#b)" fill="#FFF"><path d="M0 0h349v162H0z"/></g></g></svg>